<svg width="21" height="20" viewBox="0 0 21 20" fill="none" xmlns="http://www.w3.org/2000/svg">
<g clip-path="url(#clip0_19_813)">
<path d="M9.93647 6.01837C9.20647 6.01837 8.07647 5.18837 6.88647 5.21837C5.31647 5.23837 3.87647 6.12837 3.06647 7.53837C1.43647 10.3684 2.64647 14.5484 4.23647 16.8484C5.01647 17.9684 5.93647 19.2284 7.15647 19.1884C8.32647 19.1384 8.76647 18.4284 10.1865 18.4284C11.5965 18.4284 11.9965 19.1884 13.2365 19.1584C14.4965 19.1384 15.2965 18.0184 16.0665 16.8884C16.9565 15.5884 17.3265 14.3284 17.3465 14.2584C17.3165 14.2484 14.8965 13.3184 14.8665 10.5184C14.8465 8.17837 16.7765 7.05837 16.8665 7.00837C15.7665 5.39837 14.0765 5.21837 13.4865 5.17837C11.9465 5.05837 10.6565 6.01837 9.93647 6.01837V6.01837ZM12.5365 3.65837C13.1865 2.87837 13.6165 1.78837 13.4965 0.708374C12.5665 0.748374 11.4465 1.32837 10.7765 2.10837C10.1765 2.79837 9.65647 3.90837 9.79647 4.96837C10.8265 5.04837 11.8865 4.43837 12.5365 3.65837V3.65837Z" fill="#FC8019"/>
</g>
<defs>
<clipPath id="clip0_19_813">
<rect width="20" height="20" fill="white" transform="translate(0.25)"/>
</clipPath>
</defs>
</svg>
