<svg width="21" height="19" viewBox="0 0 21 19" fill="none" xmlns="http://www.w3.org/2000/svg">
<path d="M7.71379 12.0899L12.8055 2.89243C12.8755 2.76576 12.9455 2.64076 13.0088 2.50993C13.0663 2.39159 13.1146 2.27243 13.1463 2.14326C13.213 1.87159 13.1946 1.58826 13.0913 1.32909C12.9904 1.07411 12.8089 0.859051 12.5746 0.716593C12.3443 0.576932 12.0732 0.520184 11.8063 0.55576C11.5396 0.591594 11.2955 0.717427 11.103 0.914093C11.0113 1.00576 10.9363 1.10993 10.8671 1.22076C10.7905 1.34243 10.7213 1.46909 10.6513 1.59576L10.3296 2.17659L10.0071 1.59493C9.93712 1.46909 9.86795 1.34243 9.79129 1.22076C9.72393 1.1101 9.64486 1.00701 9.55545 0.91326C9.36765 0.718702 9.11998 0.592812 8.85212 0.55576C8.58544 0.520446 8.31469 0.577183 8.08462 0.716593C7.85033 0.859098 7.66894 1.07414 7.56795 1.32909C7.4642 1.58789 7.44495 1.87286 7.51295 2.14326C7.54462 2.27243 7.59295 2.39159 7.64962 2.50993C7.71295 2.64076 7.78295 2.76576 7.85295 2.89243L8.89295 4.77076L4.84129 12.0891H2.06379C1.92462 12.0891 1.78462 12.0891 1.64545 12.0974C1.51879 12.1049 1.39545 12.1208 1.27212 12.1566C1.01379 12.2316 0.787119 12.3899 0.623786 12.6133C0.460619 12.8381 0.372678 13.1087 0.372528 13.3865C0.372379 13.6642 0.460028 13.9349 0.622952 14.1599C0.787119 14.3833 1.01295 14.5408 1.27212 14.6166C1.39545 14.6524 1.51879 14.6683 1.64545 14.6758C1.78462 14.6841 1.92462 14.6841 2.06462 14.6841H12.9788C13.0121 14.6113 13.04 14.5361 13.0621 14.4591C13.408 13.2791 12.5488 12.0891 11.3663 12.0891L7.71379 12.0899ZM2.96712 15.1083L2.30712 16.3583C2.23879 16.4883 2.16962 16.6166 2.10795 16.7508C2.05084 16.8715 2.00616 16.9977 1.97462 17.1274C1.90775 17.405 1.92634 17.6964 2.02795 17.9633C2.12879 18.2283 2.30629 18.4491 2.53379 18.5924C2.76045 18.7358 3.02462 18.7941 3.28462 18.7566C3.54629 18.7199 3.78462 18.5916 3.97295 18.3899C4.06295 18.2941 4.13629 18.1883 4.20462 18.0749C4.27962 17.9499 4.34712 17.8199 4.41545 17.6899L5.37295 15.8766C5.29795 15.7516 4.58379 14.6516 2.96712 15.1083ZM20.1221 12.6033C19.9614 12.3857 19.7331 12.2275 19.473 12.1533C19.3511 12.1197 19.2259 12.0998 19.0996 12.0941C18.9596 12.0858 18.8205 12.0858 18.6805 12.0858H15.913L12.2546 5.57326C11.7746 6.07718 11.4615 6.71674 11.358 7.40493C11.224 8.26572 11.3843 9.14654 11.813 9.90493L16.208 17.7324C16.278 17.8574 16.3471 17.9824 16.4238 18.1024C16.4938 18.2108 16.5688 18.3133 16.6596 18.4058C16.8521 18.5991 17.0963 18.7224 17.3638 18.7583C17.6305 18.7933 17.8996 18.7383 18.1321 18.5999C18.3659 18.4601 18.5477 18.2476 18.6496 17.9949C18.7538 17.7391 18.7713 17.4599 18.7046 17.1916C18.6718 17.0665 18.6257 16.9452 18.5671 16.8299C18.5046 16.7008 18.4338 16.5774 18.3638 16.4524L17.3505 14.6474H18.6805C18.8205 14.6474 18.9596 14.6474 19.0996 14.6399C19.2263 14.6324 19.3496 14.6166 19.473 14.5816C19.7335 14.5073 19.9621 14.3488 20.123 14.1308C20.2859 13.9096 20.3735 13.6421 20.373 13.3674C20.3735 13.0928 20.2859 12.8252 20.123 12.6041L20.1221 12.6033Z" fill="#FC8019"/>
</svg>
