<svg width="17" height="16" viewBox="0 0 17 16" fill="none" xmlns="http://www.w3.org/2000/svg">
<g clip-path="url(#clip0_19_250)">
<path d="M3.83334 1.33337H13.1667C13.3435 1.33337 13.5131 1.40361 13.6381 1.52864C13.7631 1.65366 13.8333 1.82323 13.8333 2.00004V14.762C13.8334 14.8216 13.8175 14.8802 13.7873 14.9315C13.757 14.9829 13.7136 15.0252 13.6614 15.0541C13.6093 15.083 13.5504 15.0973 13.4908 15.0957C13.4312 15.094 13.3731 15.0764 13.3227 15.0447L8.5 12.02L3.67734 15.044C3.62692 15.0757 3.56893 15.0933 3.50941 15.095C3.44988 15.0967 3.391 15.0824 3.33887 15.0536C3.28674 15.0248 3.24328 14.9826 3.21299 14.9313C3.18271 14.88 3.16672 14.8216 3.16667 14.762V2.00004C3.16667 1.82323 3.23691 1.65366 3.36193 1.52864C3.48696 1.40361 3.65653 1.33337 3.83334 1.33337ZM12.5 2.66671H4.50001V12.9547L8.5 10.4474L12.5 12.9547V2.66671Z" fill="#FC8019"/>
</g>
<defs>
<clipPath id="clip0_19_250">
<rect width="16" height="16" fill="white" transform="translate(0.5)"/>
</clipPath>
</defs>
</svg>
