<svg width="21" height="20" viewBox="0 0 21 20" fill="none" xmlns="http://www.w3.org/2000/svg">
<g clip-path="url(#clip0_19_152)">
<path d="M3.30317 6.25834C3.99651 4.87771 5.06015 3.7171 6.3752 2.90623C7.69025 2.09536 9.20489 1.66619 10.7498 1.66667C12.9957 1.66667 14.8823 2.49167 16.3248 3.83751L13.9357 6.22751C13.0715 5.40167 11.9732 4.98084 10.7498 4.98084C8.579 4.98084 6.74151 6.44751 6.08734 8.41667C5.92067 8.91667 5.82567 9.45001 5.82567 10C5.82567 10.55 5.92067 11.0833 6.08734 11.5833C6.74234 13.5533 8.579 15.0192 10.7498 15.0192C11.8707 15.0192 12.8248 14.7233 13.5715 14.2233C14.0044 13.9383 14.3749 13.5685 14.6608 13.1363C14.9467 12.704 15.142 12.2182 15.2348 11.7083H10.7498V8.48501H18.5982C18.6965 9.03001 18.7498 9.59834 18.7498 10.1892C18.7498 12.7275 17.8415 14.8642 16.2648 16.3142C14.8865 17.5875 12.9998 18.3333 10.7498 18.3333C9.65537 18.3338 8.57154 18.1185 7.56029 17.6999C6.54905 17.2813 5.63021 16.6674 4.8563 15.8935C4.0824 15.1196 3.46858 14.2008 3.04995 13.1896C2.63132 12.1783 2.41607 11.0945 2.4165 10C2.4165 8.65501 2.73817 7.38334 3.30317 6.25834Z" fill="#FC8019"/>
</g>
<defs>
<clipPath id="clip0_19_152">
<rect width="20" height="20" fill="white" transform="translate(0.75)"/>
</clipPath>
</defs>
</svg>
