<svg width="21" height="21" viewBox="0 0 21 21" fill="none" xmlns="http://www.w3.org/2000/svg">
<g clip-path="url(#clip0_19_169)">
<path d="M3.38046 2.16821L11.8663 10.6565L3.38129 19.1449C3.23041 19.0814 3.10165 18.9748 3.0112 18.8384C2.92075 18.702 2.87265 18.5419 2.87296 18.3782V2.93488C2.87302 2.7714 2.92117 2.61154 3.01141 2.47522C3.10165 2.3389 3.22999 2.23213 3.38046 2.16821V2.16821ZM12.4555 11.2457L14.3738 13.164L5.25962 18.4415L12.4555 11.2457V11.2457ZM15.1213 8.58071L17.4605 9.93571C17.5867 10.009 17.6916 10.1141 17.7644 10.2406C17.8373 10.3671 17.8756 10.5106 17.8756 10.6565C17.8756 10.8025 17.8373 10.946 17.7644 11.0725C17.6916 11.199 17.5867 11.3041 17.4605 11.3774L15.1205 12.7324L13.0446 10.6565L15.1213 8.58071ZM5.25962 2.87155L14.3746 8.14821L12.4555 10.0674L5.25962 2.87155V2.87155Z" fill="#FC8019"/>
</g>
<defs>
<clipPath id="clip0_19_169">
<rect width="20" height="20" fill="white" transform="translate(0.372955 0.656494)"/>
</clipPath>
</defs>
</svg>
