<svg width="28" height="28" viewBox="0 0 28 28" fill="none" xmlns="http://www.w3.org/2000/svg">
<rect width="28" height="28" rx="14" fill="#F5F5F5"/>
<path d="M18.2778 6.2998H9.72227C8.81464 6.2998 7.94419 6.66036 7.30239 7.30215C6.6606 7.94394 6.30005 8.8144 6.30005 9.72203V18.2776C6.30005 19.1852 6.6606 20.0557 7.30239 20.6975C7.94419 21.3392 8.81464 21.6998 9.72227 21.6998H18.2778C19.1855 21.6998 20.0559 21.3392 20.6977 20.6975C21.3395 20.0557 21.7 19.1852 21.7 18.2776V9.72203C21.7 8.8144 21.3395 7.94394 20.6977 7.30215C20.0559 6.66036 19.1855 6.2998 18.2778 6.2998Z" stroke="#212121" stroke-width="1.8" stroke-linejoin="round"/>
<path d="M14.0001 17.4221C14.9077 17.4221 15.7782 17.0615 16.42 16.4197C17.0618 15.7779 17.4223 14.9075 17.4223 13.9999C17.4223 13.0922 17.0618 12.2218 16.42 11.58C15.7782 10.9382 14.9077 10.5776 14.0001 10.5776C13.0925 10.5776 12.222 10.9382 11.5802 11.58C10.9384 12.2218 10.5779 13.0922 10.5779 13.9999C10.5779 14.9075 10.9384 15.7779 11.5802 16.4197C12.222 17.0615 13.0925 17.4221 14.0001 17.4221Z" stroke="#212121" stroke-width="1.8" stroke-linejoin="round"/>
<path d="M18.7056 9.29395L18.7368 9.3252M18.7056 9.29395L18.6743 9.3252M18.7056 9.29395L18.7368 9.3252M18.7056 9.29395L18.6743 9.3252M18.7368 9.3252C18.7285 9.33353 18.7174 9.33887 18.7056 9.33887L18.6743 9.3252M18.7368 9.3252C18.7452 9.31686 18.7505 9.30573 18.7505 9.29395L18.7368 9.2627L18.7056 9.25L18.6743 9.2627C18.666 9.27101 18.6616 9.28219 18.6616 9.29395L18.6743 9.3252" stroke="#212121" stroke-width="1.8"/>
</svg>
