<svg width="14" height="19" viewBox="0 0 14 19" fill="none" xmlns="http://www.w3.org/2000/svg">
<path d="M6.54688 17.8984C1.41406 10.5156 0.5 9.74219 0.5 7C0.5 3.27344 3.48828 0.25 7.25 0.25C10.9766 0.25 14 3.27344 14 7C14 9.74219 13.0508 10.5156 7.91797 17.8984C7.60156 18.3906 6.86328 18.3906 6.54688 17.8984ZM7.25 9.8125C8.79688 9.8125 10.0625 8.58203 10.0625 7C10.0625 5.45312 8.79688 4.1875 7.25 4.1875C5.66797 4.1875 4.4375 5.45312 4.4375 7C4.4375 8.58203 5.66797 9.8125 7.25 9.8125Z" fill="#FD9947"/>
</svg>
