<svg width="18" height="17" viewBox="0 0 18 17" fill="none" xmlns="http://www.w3.org/2000/svg">
<path d="M9.48845 14.49C9.18497 14.3202 8.81503 14.3202 8.51155 14.49L5.01421 16.4477C4.26961 16.8645 3.37865 16.2172 3.54493 15.3803L4.32593 11.449C4.39369 11.1079 4.27936 10.756 4.02401 10.5199L1.08097 7.79854C0.454439 7.2192 0.794717 6.17179 1.64211 6.07129L5.62252 5.59921C5.96786 5.55826 6.26712 5.34083 6.41279 5.02506L8.09196 1.38503C8.44939 0.610207 9.55061 0.610208 9.90804 1.38503L11.5872 5.02506C11.7329 5.34083 12.0321 5.55826 12.3775 5.59921L16.3579 6.07129C17.2053 6.17179 17.5456 7.2192 16.919 7.79854L13.976 10.5199C13.7206 10.756 13.6063 11.1079 13.6741 11.449L14.4551 15.3803C14.6213 16.2172 13.7304 16.8645 12.9858 16.4477L9.48845 14.49Z" fill="white"/>
</svg>
